<?xml version="1.0" encoding="UTF-8"?>
<svg width="128.271556px" height="39.91px" viewBox="0 0 128.271556 39.91" version="1.1" xmlns="http://www.w3.org/2000/svg" xmlns:xlink="http://www.w3.org/1999/xlink">
    <title>brave_alt</title>
    <defs>
        <path d="M32.89,9.58 L33.83,7.28 C33.83,7.28 32.64,6 31.19,4.55 C29.74,3.11 26.68,3.95 26.68,3.95 L23.18,0 L10.92,0 L7.42,3.96 C7.42,3.96 4.35,3.11 2.91,4.56 C1.46,6 0.26,7.27 0.26,7.27 L1.2,9.57 L0,12.97 C0,12.97 3.52,26.24 3.93,27.87 C4.73,31.06 5.29,32.29 7.59,33.91 C9.89,35.52 14.07,38.33 14.75,38.76 C15.43,39.18 16.28,39.91 17.05,39.91 C17.82,39.91 18.67,39.18 19.35,38.76 C20.03,38.33 24.21,35.52 26.51,33.91 C28.81,32.29 29.36,31.06 30.17,27.86 C30.58,26.24 34.09,12.97 34.09,12.97 L32.89,9.57 L32.89,9.58 Z" id="path-1"></path>
        <linearGradient x1="0.0293341156%" y1="100.726635%" x2="0.0293341156%" y2="2666.49962%" id="linearGradient-3">
            <stop stop-color="#FF5601" offset="0%"></stop>
            <stop stop-color="#FF2001" offset="100%"></stop>
        </linearGradient>
        <path d="M32.89,9.58 L33.83,7.28 C33.83,7.28 32.64,6 31.19,4.55 C29.74,3.11 26.68,3.95 26.68,3.95 L23.18,0 L10.92,0 L7.42,3.96 C7.42,3.96 4.35,3.11 2.91,4.56 C1.46,6 0.26,7.27 0.26,7.27 L1.2,9.57 L0,12.97 C0,12.97 3.52,26.24 3.93,27.87 C4.73,31.06 5.29,32.29 7.59,33.91 C9.89,35.52 14.07,38.33 14.75,38.76 C15.43,39.18 16.28,39.91 17.05,39.91 C17.82,39.91 18.67,39.18 19.35,38.76 C20.03,38.33 24.21,35.52 26.51,33.91 C28.81,32.29 29.36,31.06 30.17,27.86 C30.58,26.24 34.09,12.97 34.09,12.97 L32.89,9.57 L32.89,9.58 Z" id="path-4"></path>
        <linearGradient x1="0.0293341156%" y1="100.726635%" x2="100%" y2="100.726635%" id="linearGradient-6">
            <stop stop-color="#FF5601" offset="0%"></stop>
            <stop stop-color="#FF2001" offset="100%"></stop>
        </linearGradient>
        <path d="M17.48,1.12 C18,1.12 21.78,0.39 21.78,0.39 C21.78,0.39 26.28,5.81 26.28,6.97 C26.28,7.93 25.89,8.31 25.44,8.75 L25.14,9.05 L21.78,12.62 L21.67,12.72 C21.33,13.07 20.84,13.56 21.19,14.39 L21.26,14.56 C21.64,15.46 22.11,16.56 21.51,17.68 C20.87,18.87 19.77,19.66 19.07,19.53 C18.37,19.4 16.72,18.53 16.11,18.14 C15.51,17.75 13.58,16.17 13.58,15.56 C13.58,15.06 14.96,14.21 15.64,13.8 L15.94,13.62 L16.26,13.41 C16.88,13.03 17.99,12.34 18.01,12.04 C18.05,11.66 18.04,11.55 17.54,10.62 L17.19,9.99 C16.71,9.19 16.19,8.28 16.3,7.63 C16.44,6.9 17.59,6.48 18.56,6.12 C19.01985,5.95867 19.4766,5.78864 19.93,5.61 C20.9,5.24 21.98,4.84 22.16,4.76 C22.41,4.64 22.34,4.54 21.59,4.46 L21.23,4.43 C20.31,4.33 18.6,4.15 17.77,4.38 L17.24,4.53 C16.3,4.78 15.16,5.09 15.05,5.27 L15,5.35 C14.9,5.5 14.82,5.59 14.94,6.23 L15.14,7.25 C15.39,8.59 15.79,10.68 15.84,11.15 L15.86,11.35 C15.93,11.87 15.97,12.22 15.36,12.35 L15.2,12.39 C14.51,12.55 13.5,12.79 13.14,12.79 C12.39037,12.70184 11.64833,12.55811 10.92,12.36 C10.31,12.22 10.35,11.86 10.42,11.34 L10.44,11.15 C10.49,10.68 10.89,8.58 11.14,7.24 L11.34,6.23 C11.46,5.59 11.39,5.5 11.28,5.35 L11.23,5.27 C11.12,5.09 9.98,4.77 9.04,4.53 L8.51,4.38 C7.68,4.15 5.97,4.33 5.05,4.43 L4.68,4.47 C3.94,4.54 3.88,4.64 4.12,4.76 C4.3,4.84 5.38,5.24 6.35,5.61 L7.37,5.99 L7.72,6.12 C8.69,6.48 9.84,6.9 9.98,7.62 C10.09,8.28 9.57,9.18 9.09,9.99 L8.74,10.62 C8.24,11.55 8.24,11.66 8.27,12.04 C8.29,12.34 9.4,13.03 10.01,13.41 L10.34,13.61 L10.64,13.81 C11.32,14.21 12.7,15.05 12.7,15.56 C12.7,16.16 10.78,17.76 10.17,18.14 C9.57,18.54 7.91,19.4 7.21,19.54 C6.51,19.66 5.41,18.87 4.77,17.68 C4.17,16.56 4.64,15.45 5.02,14.56 L5.09,14.39 C5.44,13.56 4.95,13.07 4.61,12.73 L4.51,12.62 L1.13,9.04 L0.84,8.75 C0.38,8.31 0,7.93 0,6.97 C0,5.81 4.5,0.39 4.5,0.39 C4.5,0.39 8.28,1.11 8.8,1.11 C9.2,1.11 9.99,0.84 10.81,0.56 L11.44,0.35 C11.98686,0.1521 12.55944,0.03421 13.14,0 C13.14,0 13.82,0 14.84,0.35 L15.47,0.55 C16.29,0.85 17.07,1.11 17.49,1.11 L17.48,1.12 Z" id="path-7"></path>
        <path d="M9.1242527,1.55 C9.9242527,1.97 10.4942527,2.25 10.7142527,2.39 C10.9942527,2.57 10.8142527,2.89 10.5642527,3.07 C10.3142527,3.25 6.9142527,5.89 6.5842527,6.17 L6.4442527,6.3 C6.1242527,6.58 5.7242527,6.95 5.4342527,6.95 C5.1442527,6.95 4.7342527,6.58 4.4242527,6.3 L4.2742527,6.17 C3.9442527,5.87 0.544252699,3.24 0.294252699,3.07 C0.0342526987,2.89 -0.135747301,2.56 0.144252699,2.38 C0.364252699,2.25 0.924252699,1.96 1.7342527,1.54 L2.4942527,1.15 C3.6942527,0.53 5.1942527,0 5.4242527,0 C5.6542527,0 7.1542527,0.53 8.3542527,1.15 L9.1142527,1.55 L9.1242527,1.55 Z" id="path-9"></path>
        <path d="M6.87,6.47 C7.94646,5.92094 9.14183,5.64614 10.35,5.67 C13.32594,5.63974 16.05702,7.31414 17.38,9.98 C18.11931,11.46645 18.48651,13.11024 18.45,14.77 C18.45,16.59 18.1,18.19 17.38,19.59 C16.72698,20.92274 15.72034,22.05045 14.47,22.85 C13.23509,23.619873 11.80511,24.019018 10.35,24 C9.14356,24.029636 7.94837,23.761751 6.87,23.22 C5.87,22.69 5.08,22.02 4.49,21.18 L4.49,23.71 L0,23.71 L0,0 L4.49,0 L4.49,8.56 C5.09504,7.67435 5.9136,6.95553 6.87,6.47 L6.87,6.47 Z M13.22,12 C12.41745,10.5129 10.85978,9.59005 9.16998,9.60034335 C7.48017,9.61099 5.93407,10.55307 5.15,12.05 C4.71,12.84 4.49,13.77 4.49,14.84 C4.49,15.9 4.71,16.84 5.15,17.63 C5.58,18.42 6.16,19.02 6.88,19.43 C8.29689,20.2751 10.06311,20.2751 11.48,19.43 C12.2148,18.98856 12.81614,18.35611 13.22,17.6 C13.66,16.8 13.88,15.87 13.88,14.78 C13.88,13.68 13.66,12.78 13.22,12.01 L13.22,12 L13.22,12 Z M26.55,6.5 C27.48,5.97 28.54,5.7 29.74,5.7 L29.74,10.41 L28.54,10.41 C27.14,10.41 26.08,10.74 25.36,11.41 C24.65,12.07 24.29,13.22 24.29,14.86 L24.29,23.71 L19.8,23.71 L19.8,5.96 L24.29,5.96 L24.29,8.71 C24.84328,7.79324 25.6211,7.03264 26.55,6.5 L26.55,6.5 Z M31.38,10 C32.03347,8.68026 33.04544,7.57125 34.3,6.8 C35.54077,6.04577 36.96806,5.6543 38.42,5.67 C40.71006,5.62728 42.88455,6.67371 44.28,8.49 L44.28,5.96 L48.8,5.96 L48.8,23.7 L44.28,23.7 L44.28,21.1 C43.66163,21.97238 42.84172,22.68251 41.89,23.17 C40.80978,23.730405 39.60673,24.01226 38.39,23.99 C36.89,23.99 35.53,23.6 34.29,22.83 C33.04338,22.03335 32.04007,20.90895 31.39,19.58 C30.67,18.18 30.31,16.58 30.31,14.76 C30.31,12.94 30.67,11.37 31.38,9.98 L31.38,10 Z M43.64,12.03 C42.84996,10.51874 41.27508,9.58233 39.57,9.61 C37.89298,9.60873 36.34998,10.52608 35.55,12 C35.11,12.78 34.89,13.7 34.89,14.77 C34.89,15.84 35.11,16.77 35.55,17.57 C35.99,18.37 36.56,18.99 37.28,19.42 C37.97013,19.83945 38.7624,20.06087 39.57,20.0600026 C40.37,20.0600026 41.18,19.85 41.91,19.43 C42.64456,19.00474 43.2442,18.38084 43.64,17.63 C44.06,16.86 44.28,15.93 44.28,14.83 C44.28,13.75 44.06,12.81 43.64,12.03 L43.64,12.03 Z M59.3,19.58 L63.8,5.96 L68.57,5.96 L62,23.7 L56.55,23.7 L50,5.96 L54.8,5.96 L59.3,19.58 Z M85.55,16.18 L72.58,16.18 C72.68,17.46 73.13,18.47 73.92,19.19 C74.7126,19.92347 75.7605,20.31821 76.84,20.29 C78.5,20.29 79.69,19.57 80.39,18.13 L85.23,18.13 C84.7365,19.81966 83.704,21.30162 82.29,22.35 C80.7379,23.483474 78.8508,24.064376 76.93,24 C75.23,24 73.69,23.62 72.33,22.86 C70.9859,22.11358 69.8853,20.99565 69.16,19.64 C68.3829,18.16154 67.994,16.50988 68.03,14.84 C68.03,13.02 68.4,11.38 69.15,10 C69.861,8.64904 70.9527,7.5364 72.29,6.8 C73.7138,6.0306 75.3119,5.6414 76.93,5.67 C78.68,5.67 80.13,6.03 81.47,6.77 C82.7798,7.47482 83.8567,8.54481 84.57,9.85 C85.327,11.26327 85.7092,12.847 85.68,14.45 C85.68,15.09 85.64,15.67 85.55,16.18 L85.55,16.18 Z M81.03,13.17 C81.0496,12.10598 80.5908,11.0893 79.78,10.4 C78.9511,9.70072 77.8941,9.33058 76.81,9.36 C75.69,9.36 74.76,9.69 74.01,10.36 C73.2174,11.09129 72.7195,12.08713 72.61,13.16 L81.04,13.16 L81.03,13.17 Z" id="path-11"></path>
    </defs>
    <g id="Page-1" stroke="none" stroke-width="1" fill="none" fill-rule="evenodd">
        <g id="brave_alt">
            <g id="Group-7">
                <g id="Group-3">
                    <mask id="mask-2" fill="white">
                        <use xlink:href="#path-1"></use>
                    </mask>
                    <g id="Clip-2"></g>
                    <path d="M32.89,9.58 L33.83,7.28 C33.83,7.28 32.64,6 31.19,4.55 C29.74,3.11 26.68,3.95 26.68,3.95 L23.18,0 L10.92,0 L7.42,3.96 C7.42,3.96 4.35,3.11 2.91,4.56 C1.46,6 0.26,7.27 0.26,7.27 L1.2,9.57 L0,12.97 C0,12.97 3.52,26.24 3.93,27.87 C4.73,31.06 5.29,32.29 7.59,33.91 C9.89,35.52 14.07,38.33 14.75,38.76 C15.43,39.18 16.28,39.91 17.05,39.91 C17.82,39.91 18.67,39.18 19.35,38.76 C20.03,38.33 24.21,35.52 26.51,33.91 C28.81,32.29 29.36,31.06 30.17,27.86 C30.58,26.24 34.09,12.97 34.09,12.97 L32.89,9.57 L32.89,9.58 Z" id="Fill-1" fill="url(#linearGradient-3)" mask="url(#mask-2)"></path>
                </g>
                <g id="Group-6">
                    <mask id="mask-5" fill="white">
                        <use xlink:href="#path-4"></use>
                    </mask>
                    <g id="Clip-5"></g>
                    <path d="M32.89,9.58 L33.83,7.28 C33.83,7.28 32.64,6 31.19,4.55 C29.74,3.11 26.68,3.95 26.68,3.95 L23.18,0 L10.92,0 L7.42,3.96 C7.42,3.96 4.35,3.11 2.91,4.56 C1.46,6 0.26,7.27 0.26,7.27 L1.2,9.57 L0,12.97 C0,12.97 3.52,26.24 3.93,27.87 C4.73,31.06 5.29,32.29 7.59,33.91 C9.89,35.52 14.07,38.33 14.75,38.76 C15.43,39.18 16.28,39.91 17.05,39.91 C17.82,39.91 18.67,39.18 19.35,38.76 C20.03,38.33 24.21,35.52 26.51,33.91 C28.81,32.29 29.36,31.06 30.17,27.86 C30.58,26.24 34.09,12.97 34.09,12.97 L32.89,9.57 L32.89,9.58 Z" id="Fill-4" fill="url(#linearGradient-6)" mask="url(#mask-5)"></path>
                </g>
            </g>
            <g id="Group-10" transform="translate(3.910000, 6.080000)">
                <mask id="mask-8" fill="white">
                    <use xlink:href="#path-7"></use>
                </mask>
                <g id="Clip-9"></g>
                <polygon id="Fill-8" fill="#FFFFFF" mask="url(#mask-8)" points="-1 -1 27.28 -1 27.28 20.66 -1 20.66"></polygon>
            </g>
            <g id="Group-13" transform="translate(11.615747, 24.830000)">
                <mask id="mask-10" fill="white">
                    <use xlink:href="#path-9"></use>
                </mask>
                <g id="Clip-12"></g>
                <polygon id="Fill-11" fill="#FFFFFF" mask="url(#mask-10)" points="-1.1357473 -1 11.9942527 -1 11.9942527 7.95 -1.1357473 7.95"></polygon>
            </g>
            <g id="Group-16" transform="translate(42.590000, 7.000000)">
                <mask id="mask-12" fill="white">
                    <use xlink:href="#path-11"></use>
                </mask>
                <g id="Clip-15"></g>
                <polygon id="Fill-14" fill="#27272E" mask="url(#mask-12)" points="-1 -1 86.7092 -1 86.7092 25.064376 -1 25.064376"></polygon>
            </g>
        </g>
    </g>
</svg>