<?xml version="1.0" encoding="UTF-8"?>
<svg width="600.1px" height="184.837578px" viewBox="0 0 600.1 184.837578" version="1.1" xmlns="http://www.w3.org/2000/svg" xmlns:xlink="http://www.w3.org/1999/xlink">
    <title>northwestern</title>
    <defs>
        <path d="M9.1,22 C9.1,36.1 17.1,42 26.2,42 C31.9,42 38.6,39.7 38.6,39.7 L39.6,41.6 C37.1,44 30.4,49.2 21.9,49.2 C10.4,49.2 2.84217094e-14,40.6 2.84217094e-14,24.8 C2.84217094e-14,10.4 9.9,0 22.3,0 C31.9,0 39.4,5.8 39.4,16.7 C39.4,19.6 38.9,22 38.9,22 L9.1,22 L9.1,22 Z M24,18.1 C28.9,17.9 30.6,17 30.6,12 C30.6,7.8 27.6,4.5 21.1,4.5 C14.3,4.5 9.2,10.5 9.2,18.6 L24,18.1 Z" id="path-1"></path>
        <path d="M15.2,41 L17.2,43.5 L23.8,45.8 L23.6,48.4 L0.6,48.4 L0.6,45.8 L7.3,43.3 L7.3,20.3 C7.3,11 5.5,7.8 0,7.8 L0,5.3 L14.8,0 L15.6,0 C15.6,0 15.3,7 15.3,14.3 L15.3,41 L15.2,41 Z" id="path-3"></path>
        <path d="M22.2,0 L22.2,2.6 L15.4,4.8 L26.6,35.5 L38.3,5.1 L31.2,2.6 L31.2,0 L49.2,0 L49.2,2.9 C46.6,2.9 43.3,4.2 39.8,12.8 L27,47.5 L22.1,47.5 L8,10.3 C5.8,5 3.2,2.9 0,2.9 L0,0 L22.2,0 L22.2,0 Z" id="path-5"></path>
        <path d="M3.2,47.4 C2.5,47.1 0.7,46.1 0.6,44 L0,34.4 L4.5,34.4 C5.7,41 10.2,45.2 16,45.2 C21.9,45.2 24.2,42.2 24.2,38.1 C24.2,34.3 21.1,32.2 17.2,30.2 L12,27.6 C4.6,23.9 0.9,20.8 0.9,13.5 C0.9,4.4 7.5,0 17.7,0 C24.9,0 30.4,2.7 30.4,2.7 L29.1,14.6 L25,14.6 C25,7.2 22,4.5 15.8,4.5 C11.7,4.5 7.8,6.1 7.8,10.2 C7.8,13.5 9.1,14.9 17.1,19 L21.6,21.3 C29.9,25.5 32.3,29.1 32.3,36 C32.3,44.3 24,49.3 15.9,49.3 C10.7,49.2 6.1,48.6 3.2,47.4 Z" id="path-7"></path>
        <path d="M48.9,43.6 L47,41.1 L47.1,15.5 C47.1,3.6 39.4,0.3 31.5,0.3 C24.8,0.3 15.4,8.1 15.4,8.1 C15.4,3.9 15.6,0 15.6,0 L14.8,0 L0,5.3 L0,7.8 C5.7,7.8 7.2,12.9 7.2,22 L7.2,43.3 L0.5,45.8 L0.5,48.4 L23.8,48.4 L24,45.8 L17.4,43.5 L15.5,41 L15.5,11.9 C15.5,11.9 19.1,7.1 25.4,7.1 C32,7.1 38.8,9.4 38.8,20.7 L38.5,43.2 L32,45.7 L32,48.3 L55.3,48.3 L55.5,45.7 L48.9,43.6 Z" id="path-9"></path>
        <path d="M34.7,1 L34.7,1 L34.7,1 C34.7,1 32.9,0.4 29.6,0.4 C22.5,0.4 15.1,11.5 15.1,11.5 C15.1,5.3 15.3,0 15.3,0 L14.5,0 L5.68434189e-14,5.3 L5.68434189e-14,7.8 C5.5,7.8 7.2,12.7 7.2,21.2 L7.2,43.3 L0.5,45.8 L0.5,48.4 L23.8,48.4 L23.8,45.8 L17.2,43.5 L15.3,41 L15.3,19.3 C15.3,12.6 20.6,8.9 26.2,8.9 C27.4,8.9 28.6,9.2 29.6,9.5 L31.2,11.9 L33.2,12.1 L34.7,1 L34.7,1 L34.7,1 Z" id="path-11"></path>
        <path d="M15.3,41 L17.2,43.5 L23.8,45.8 L23.6,48.4 L0.6,48.4 L0.6,45.8 L7.3,43.3 L7.3,20.3 C7.3,11 5.5,7.8 0,7.8 L0,5.3 L14.8,0 L15.6,0 C15.6,0 15.3,7 15.3,14.3 L15.3,41 Z" id="path-13"></path>
        <path d="M58.8,44.5 C58.8,62 46.3,67.8 34.4,67.8 C16.4,67.8 9.1,59.4 9.1,43.8 L9.1,14.2 C9.1,5.6 6.8,3.7 -1.41553436e-15,3.4 L-1.41553436e-15,0.1 L27.7,0.1 L27.7,3.1 L18.3,6 L18.3,39.3 C18.3,59.4 26.4,62.3 35.6,62.3 C45.2,62.3 52.5,57.8 52.5,41.5 L52.5,29.2 L52.5,6 L43.4,3.2 L43.4,0 L67.7,0 L67.7,3.6 L60.8,4.7 L58.9,7.1 L58.9,20.1 L58.8,44.5 Z" id="path-15"></path>
        <path d="M16.7,12 L16.7,0 L10.8,1 L8.3,12.5 L0,13.3 L0,17.3 C4.5,17.3 8.3,17.7 8.3,22.1 C8.3,26.5 7.9,40.2 7.9,45.6 C7.9,55.9 11.9,59.8 18.4,59.8 C24.1,59.8 28.7,57.5 33,54 L31.9,51.7 C31.9,51.7 29,53.5 24.8,53.5 C20.3,53.5 16.1,51 16.2,44.7 L16.6,18.2 L39.3,18.2 C40,19.2 40.7,20.5 41.4,22 L55,58.7 C52.6,66.5 46.9,72.4 41,72.8 C35.9,73.2 33.2,72.5 33.2,72.5 L34.4,82.4 C46.6,83.1 54.5,74 61.1,56.8 L72.9,24.6 C76.2,16 79.9,14.7 82.5,14.7 L82.5,11.8 L63.6,11.8 L63.6,14.4 L70.7,16.9 L60,47.4 L48.4,16.7 L55.2,14.5 L55.2,12.3 L16.7,12 Z" id="path-17"></path>
        <path d="M6.3,13.7 C5.1,13.7 0,8 0,6.9 C0,5.8 5.1,0 6.3,0 C7.6,0 12.6,5.8 12.6,6.9 C12.6,7.9 7.4,13.7 6.3,13.7 Z" id="path-19"></path>
        <path d="M6.3,13.7 C5.1,13.7 0,8 0,6.9 C0,5.8 5.1,0 6.3,0 C7.6,0 12.6,5.8 12.6,6.9 C12.6,7.9 7.5,13.7 6.3,13.7 Z" id="path-21"></path>
        <polygon id="path-23" points="2.3 0 2.3 2.6 9 10.1 9 61.6 0 64.1 0 67.1 24.4 67.1 24.4 64.1 16.7 62 14.8 59.6 14.8 16.7 57.5 67.7 61.3 67.7 61.3 6.4 70.4 3.7 70.4 0.5 45.6 0.5 45.6 4.1 53.5 6.1 55.4 8.5 55.4 49.2 55.4 49.1 54.9 49.1 13.3 0"></polygon>
        <path d="M23.7,48.9 C11.6,48.9 0,41.1 0,24.7 C0,8.3 12.3,-2.84217094e-14 23.7,-2.84217094e-14 C35.6,-2.84217094e-14 47.5,7.4 47.5,23.8 C47.6,39.7 34.9,48.9 23.7,48.9 Z M38.2,25.3 C38.2,14 32,4.4 22.4,4.4 C13.8,4.4 9.4,11.9 9.4,23.2 C9.4,34.5 14.8,44.3 25,44.3 C33.7,44.4 38.2,36.6 38.2,25.3 Z" id="path-25"></path>
        <path d="M39.4,44.8 C39.4,33.5 33.1,31.3 25.7,31.3 C19.5,31.3 15.4,35.9 15.4,35.9 L15.4,43.3 L15.4,64.8 L17.3,67.2 L23.8,69.5 L23.8,72 L0.4,72 L0.4,69.4 L7,66.9 L7,18.4 C7,9.6 4.8,7.2 0,7.2 L0,4.9 L14.9,0 L15.9,0 C15.9,0 15.4,10.4 15.4,18.1 L15.4,32.1 C15.4,32.1 25.1,24.3 31.7,24.3 C39.9,24.3 47.6,27.7 47.6,39.9 L47.6,64.9 L49.5,67.3 L56,69.6 L56,72.1 L32.7,72.1 L32.7,69.5 L39.2,67 L39.4,44.8 Z" id="path-27"></path>
        <path d="M9,22 C9,36 16.9,41.8 26,41.8 C31.6,41.8 38.4,39.5 38.4,39.5 L39.4,41.4 C37,43.8 30.3,48.9 21.8,48.9 C10.3,48.9 0,40.3 0,24.7 C0,10.4 9.9,-2.84217094e-14 22.2,-2.84217094e-14 C31.8,-2.84217094e-14 39.2,5.8 39.2,16.6 C39.2,19.4 38.7,21.9 38.7,21.9 L9,22 L9,22 Z M23.8,18.1 C28.6,17.9 30.4,17 30.4,12 C30.4,7.8 27.4,4.6 20.9,4.6 C14.2,4.6 9,10.5 9,18.6 L23.8,18.1 Z" id="path-29"></path>
        <path d="M3.2,47 C2.5,46.7 0.7,45.7 0.6,43.6 L5.68434189e-14,34 L4.4,34 C5.6,40.6 10,44.8 15.8,44.8 C21.6,44.8 24,41.8 24,37.8 C24,34 20.9,32 17,30 L11.9,27.4 C4.5,23.7 0.9,20.7 0.9,13.4 C0.9,4.4 7.5,0 17.6,0 C24.7,0 30.3,2.7 30.3,2.7 L29,14.5 L24.9,14.5 C24.9,7.1 21.9,4.4 15.7,4.4 C11.6,4.4 7.8,6 7.8,10 C7.8,13.2 9.1,14.6 17.1,18.8 L21.6,21.1 C29.8,25.3 32.2,28.9 32.2,35.7 C32.2,43.9 24,48.9 15.9,48.9 C10.6,48.8 6.1,48.3 3.2,47 Z" id="path-31"></path>
        <path d="M9,22 C9,36 16.9,41.8 26,41.8 C31.6,41.8 38.4,39.5 38.4,39.5 L39.4,41.4 C37,43.8 30.3,48.9 21.8,48.9 C10.3,48.9 0,40.3 0,24.7 C0,10.4 9.9,-2.84217094e-14 22.2,-2.84217094e-14 C31.8,-2.84217094e-14 39.2,5.8 39.2,16.6 C39.2,19.4 38.7,21.9 38.7,21.9 L9,22 L9,22 Z M23.8,18.1 C28.6,17.9 30.4,17 30.4,12 C30.4,7.8 27.4,4.6 20.9,4.6 C14.2,4.6 9,10.5 9,18.6 L23.8,18.1 Z" id="path-33"></path>
        <path d="M48.6,43.3 L46.7,40.9 L46.8,15.4 C46.8,3.6 39.1,0.3 31.3,0.3 C24.7,0.3 15.3,8.1 15.3,8.1 C15.3,3.9 15.5,0 15.5,0 L14.7,0 L0,5.3 L0,7.7 C5.6,7.7 7.1,12.7 7.1,21.8 L7.1,42.9 L0.5,45.4 L0.5,48 L23.6,48 L23.8,45.5 L17.3,43.2 L15.4,40.8 L15.4,11.9 C15.4,11.9 18.9,7.2 25.3,7.2 C31.9,7.2 38.6,9.5 38.6,20.7 L38.3,43 L31.9,45.4 L31.9,48 L55,48 L55.2,45.5 L48.6,43.3 Z" id="path-35"></path>
        <path d="M45.3,47.3 L34.5,17.4 L22.2,47.3 L18,47.3 L5.9,10.3 C4.2,5.7 3.2,2.9 0,2.9 L0,0.1 L19.9,0.1 L19.9,3 L13.8,5 L22.8,35.6 L30.8,16.4 L32.6,11.5 L29.9,3.7 L26.5,2.9 L26.5,0.1 L45.7,0.1 L45.7,3.1 L39.6,4.9 L49.8,35.5 L60.4,5.1 L53.5,2.6 L53.5,0 L71.5,0 L71.5,2.8 C67.4,3.3 65.3,4.4 62.1,12.7 L50,47.1 L45.3,47.3 L45.3,47.3 Z" id="path-37"></path>
        <path d="M31.7,51.3 C31.7,51.3 28.9,53.1 24.7,53.1 C20.2,53.1 16.1,50.6 16.1,44.3 L16.5,17.9 L31.4,17.9 L31.4,17.9 L31.5,17.9 L31.7,16.3 L31.7,16.3 L32.7,8 L30.8,7.6 L29.4,10.8 L28.6,11.5 L16.7,11.9 L16.7,11.9 L16.6,11.9 L16.6,0 L10.8,1 L8.3,12.4 L0,13.2 L0,17.1 C4.5,17.1 8.2,17.5 8.2,21.8 C8.2,26.1 7.8,39.7 7.8,45.2 C7.8,55.5 11.7,59.3 18.3,59.3 C23.9,59.3 28.6,57 32.8,53.5 L31.7,51.3 Z" id="path-39"></path>
        <path d="M31.8,51.3 C31.8,51.3 29,53.1 24.8,53.1 C20.3,53.1 16.2,50.6 16.2,44.3 L16.6,17.9 L31.5,17.9 L31.5,17.9 L31.5,17.9 L31.7,16.3 L31.7,16.3 L32.7,8 L30.8,7.6 L29.4,10.8 L28.6,11.5 L16.7,11.9 L16.7,11.9 L16.7,11.9 L16.7,0 L10.8,1 L8.3,12.4 L0,13.2 L0,17.1 C4.5,17.1 8.2,17.5 8.2,21.8 C8.2,26.1 7.8,39.7 7.8,45.2 C7.8,55.5 11.7,59.3 18.3,59.3 C23.9,59.3 28.6,57 32.8,53.5 L31.8,51.3 Z" id="path-41"></path>
        <path d="M34.4,0.9 L34.4,0.9 L34.4,0.9 C34.4,0.9 32.7,0.3 29.4,0.3 C22.4,0.3 15,11.4 15,11.4 C15,5.2 15.2,0 15.2,0 L14.4,0 L-1.42108547e-14,5.3 L-1.42108547e-14,7.7 C5.4,7.7 7.1,12.6 7.1,21 L7.1,42.9 L0.5,45.4 L0.5,48 L23.6,48 L23.6,45.5 L17.1,43.2 L15.2,40.8 L15.2,19.3 C15.2,12.7 20.4,8.9 26.1,8.9 C27.3,8.9 28.4,9.2 29.4,9.5 L31,11.8 L32.9,12 L34.4,0.9 L34.4,0.9 L34.4,0.9 Z" id="path-43"></path>
        <path d="M34.4,0.9 L34.4,0.9 L34.4,0.9 C34.4,0.9 32.7,0.3 29.4,0.3 C22.4,0.3 15,11.4 15,11.4 C15,5.2 15.2,0 15.2,0 L14.4,0 L-5.68434189e-14,5.3 L-5.68434189e-14,7.7 C5.4,7.7 7.1,12.6 7.1,21 L7.1,42.9 L0.5,45.4 L0.5,48 L23.6,48 L23.6,45.5 L17.1,43.2 L15.2,40.8 L15.2,19.3 C15.2,12.7 20.4,8.9 26.1,8.9 C27.3,8.9 28.4,9.2 29.4,9.5 L31,11.8 L33,12 L34.4,0.9 L34.4,0.9 L34.4,0.9 Z" id="path-45"></path>
    </defs>
    <g id="Page-1" stroke="none" stroke-width="1" fill="none" fill-rule="evenodd">
        <g id="northwestern">
            <g id="Group-3" transform="translate(209.700000, 112.900000)">
                <mask id="mask-2" fill="white">
                    <use xlink:href="#path-1"></use>
                </mask>
                <g id="Clip-2"></g>
                <polygon id="Fill-1" fill="#4E2A84" mask="url(#mask-2)" points="-1 -1 40.6 -1 40.6 50.2 -1 50.2"></polygon>
            </g>
            <g id="Group-6" transform="translate(131.800000, 112.600000)">
                <mask id="mask-4" fill="white">
                    <use xlink:href="#path-3"></use>
                </mask>
                <g id="Clip-5"></g>
                <polygon id="Fill-4" fill="#4E2A84" mask="url(#mask-4)" points="-1 -1 24.8 -1 24.8 49.4 -1 49.4"></polygon>
            </g>
            <g id="Group-9" transform="translate(157.700000, 114.000000)">
                <mask id="mask-6" fill="white">
                    <use xlink:href="#path-5"></use>
                </mask>
                <g id="Clip-8"></g>
                <polygon id="Fill-7" fill="#4E2A84" mask="url(#mask-6)" points="-1 -1 50.2 -1 50.2 48.5 -1 48.5"></polygon>
            </g>
            <g id="Group-12" transform="translate(299.600000, 112.800000)">
                <mask id="mask-8" fill="white">
                    <use xlink:href="#path-7"></use>
                </mask>
                <g id="Clip-11"></g>
                <polygon id="Fill-10" fill="#4E2A84" mask="url(#mask-8)" points="-1 -1 33.3 -1 33.3 50.3 -1 50.3"></polygon>
            </g>
            <g id="Group-15" transform="translate(70.400000, 112.500000)">
                <mask id="mask-10" fill="white">
                    <use xlink:href="#path-9"></use>
                </mask>
                <g id="Clip-14"></g>
                <polygon id="Fill-13" fill="#4E2A84" mask="url(#mask-10)" points="-1 -1 56.5 -1 56.5 49.4 -1 49.4"></polygon>
            </g>
            <g id="Group-18" transform="translate(257.300000, 112.400000)">
                <mask id="mask-12" fill="white">
                    <use xlink:href="#path-11"></use>
                </mask>
                <g id="Clip-17"></g>
                <polygon id="Fill-16" fill="#4E2A84" mask="url(#mask-12)" points="-1 -1 35.7 -1 35.7 49.4 -1 49.4"></polygon>
            </g>
            <g id="Group-21" transform="translate(341.000000, 112.600000)">
                <mask id="mask-14" fill="white">
                    <use xlink:href="#path-13"></use>
                </mask>
                <g id="Clip-20"></g>
                <polygon id="Fill-19" fill="#4E2A84" mask="url(#mask-14)" points="-1 -1 24.8 -1 24.8 49.4 -1 49.4"></polygon>
            </g>
            <g id="Group-24" transform="translate(0.100000, 93.900000)">
                <mask id="mask-16" fill="white">
                    <use xlink:href="#path-15"></use>
                </mask>
                <g id="Clip-23"></g>
                <polygon id="Fill-22" fill="#4E2A84" mask="url(#mask-16)" points="-1 -1 68.7 -1 68.7 68.8 -1 68.8"></polygon>
            </g>
            <g id="Group-27" transform="translate(366.200000, 102.400000)">
                <mask id="mask-18" fill="white">
                    <use xlink:href="#path-17"></use>
                </mask>
                <g id="Clip-26"></g>
                <polygon id="Fill-25" fill="#4E2A84" mask="url(#mask-18)" points="-1 -1 83.5 -1 83.5 83.6 -1 83.6"></polygon>
            </g>
            <g id="Group-30" transform="translate(136.500000, 91.000000)">
                <mask id="mask-20" fill="white">
                    <use xlink:href="#path-19"></use>
                </mask>
                <g id="Clip-29"></g>
                <polygon id="Fill-28" fill="#4E2A84" mask="url(#mask-20)" points="-1 -1 13.6 -1 13.6 14.7 -1 14.7"></polygon>
            </g>
            <g id="Group-33" transform="translate(345.800000, 91.000000)">
                <mask id="mask-22" fill="white">
                    <use xlink:href="#path-21"></use>
                </mask>
                <g id="Clip-32"></g>
                <polygon id="Fill-31" fill="#4E2A84" mask="url(#mask-22)" points="-1 -1 13.6 -1 13.6 14.7 -1 14.7"></polygon>
            </g>
            <g id="Group-36" transform="translate(0.000000, 5.000000)">
                <mask id="mask-24" fill="white">
                    <use xlink:href="#path-23"></use>
                </mask>
                <g id="Clip-35"></g>
                <polygon id="Fill-34" fill="#4E2A84" mask="url(#mask-24)" points="-1 -1 71.4 -1 71.4 68.7 -1 68.7"></polygon>
            </g>
            <g id="Group-39" transform="translate(71.600000, 24.300000)">
                <mask id="mask-26" fill="white">
                    <use xlink:href="#path-25"></use>
                </mask>
                <g id="Clip-38"></g>
                <polygon id="Fill-37" fill="#4E2A84" mask="url(#mask-26)" points="-1 -1 48.6 -1 48.6 49.9 -1 49.9"></polygon>
            </g>
            <g id="Group-42" transform="translate(205.300000, 0.000000)">
                <mask id="mask-28" fill="white">
                    <use xlink:href="#path-27"></use>
                </mask>
                <g id="Clip-41"></g>
                <polygon id="Fill-40" fill="#4E2A84" mask="url(#mask-28)" points="-1 -1 57 -1 57 73.1 -1 73.1"></polygon>
            </g>
            <g id="Group-45" transform="translate(333.500000, 24.300000)">
                <mask id="mask-30" fill="white">
                    <use xlink:href="#path-29"></use>
                </mask>
                <g id="Clip-44"></g>
                <polygon id="Fill-43" fill="#4E2A84" mask="url(#mask-30)" points="-1 -1 40.4 -1 40.4 49.9 -1 49.9"></polygon>
            </g>
            <g id="Group-48" transform="translate(381.900000, 24.400000)">
                <mask id="mask-32" fill="white">
                    <use xlink:href="#path-31"></use>
                </mask>
                <g id="Clip-47"></g>
                <polygon id="Fill-46" fill="#4E2A84" mask="url(#mask-32)" points="-1 -1 33.2 -1 33.2 49.9 -1 49.9"></polygon>
            </g>
            <g id="Group-51" transform="translate(457.900000, 24.300000)">
                <mask id="mask-34" fill="white">
                    <use xlink:href="#path-33"></use>
                </mask>
                <g id="Clip-50"></g>
                <polygon id="Fill-49" fill="#4E2A84" mask="url(#mask-34)" points="-1 -1 40.4 -1 40.4 49.9 -1 49.9"></polygon>
            </g>
            <g id="Group-54" transform="translate(544.900000, 24.000000)">
                <mask id="mask-36" fill="white">
                    <use xlink:href="#path-35"></use>
                </mask>
                <g id="Clip-53"></g>
                <polygon id="Fill-52" fill="#4E2A84" mask="url(#mask-36)" points="-1 -1 56.2 -1 56.2 49 -1 49"></polygon>
            </g>
            <g id="Group-57" transform="translate(260.800000, 25.400000)">
                <mask id="mask-38" fill="white">
                    <use xlink:href="#path-37"></use>
                </mask>
                <g id="Clip-56"></g>
                <polygon id="Fill-55" fill="#4E2A84" mask="url(#mask-38)" points="-1 -1 72.5 -1 72.5 48.3 -1 48.3"></polygon>
            </g>
            <g id="Group-60" transform="translate(167.100000, 13.900000)">
                <mask id="mask-40" fill="white">
                    <use xlink:href="#path-39"></use>
                </mask>
                <g id="Clip-59"></g>
                <polygon id="Fill-58" fill="#4E2A84" mask="url(#mask-40)" points="-1 -1 33.8 -1 33.8 60.3 -1 60.3"></polygon>
            </g>
            <g id="Group-63" transform="translate(420.200000, 13.900000)">
                <mask id="mask-42" fill="white">
                    <use xlink:href="#path-41"></use>
                </mask>
                <g id="Clip-62"></g>
                <polygon id="Fill-61" fill="#4E2A84" mask="url(#mask-42)" points="-1 -1 33.8 -1 33.8 60.3 -1 60.3"></polygon>
            </g>
            <g id="Group-66" transform="translate(125.600000, 24.000000)">
                <mask id="mask-44" fill="white">
                    <use xlink:href="#path-43"></use>
                </mask>
                <g id="Clip-65"></g>
                <polygon id="Fill-64" fill="#4E2A84" mask="url(#mask-44)" points="-1 -1 35.4 -1 35.4 49 -1 49"></polygon>
            </g>
            <g id="Group-69" transform="translate(504.500000, 24.000000)">
                <mask id="mask-46" fill="white">
                    <use xlink:href="#path-45"></use>
                </mask>
                <g id="Clip-68"></g>
                <polygon id="Fill-67" fill="#4E2A84" mask="url(#mask-46)" points="-1 -1 35.4 -1 35.4 49 -1 49"></polygon>
            </g>
        </g>
    </g>
</svg>