<?xml version="1.0" encoding="UTF-8"?>
<svg width="1024.001px" height="427.125px" viewBox="0 0 1024.001 427.125" version="1.1" xmlns="http://www.w3.org/2000/svg" xmlns:xlink="http://www.w3.org/1999/xlink">
    <title>tati</title>
    <defs>
        <path d="M65.626,38.251 L26.017,38.251 C28.051,25.675 35.018,19.215 46.246,19.215 C57.463,19.215 65.117,26.858 65.626,38.251 L65.626,38.251 Z M91.974,50.662 C91.974,19.546 74.465,0 46.411,0 C18.705,0 0,19.546 0,48.448 C0,78.715 18.36,98.093 47.263,98.093 C70.218,98.093 86.024,87.209 91.809,67.154 L64.775,67.154 C62.055,74.465 56.267,78.205 47.773,78.205 C34.853,78.205 26.868,70.384 26.182,56.78 L91.809,56.78 C91.974,54.057 91.974,51.678 91.974,50.662 L91.974,50.662 Z" id="path-1"></path>
        <path d="M1.42108547e-14,127.849 L25.496,127.849 L25.496,82.287 C25.496,62.399 31.116,52.874 42.84,52.874 C53.55,52.874 57.631,58.827 57.631,73.958 L57.631,127.849 L83.127,127.849 L83.127,71.238 C83.127,56.956 81.091,49.644 75.65,43.363 C70.207,37.068 60.861,32.987 51.678,32.987 C41.823,32.987 32.133,37.92 25.496,46.249 L25.496,0 L1.42108547e-14,0 L1.42108547e-14,127.849 L1.42108547e-14,127.849 Z" id="path-3"></path>
        <polygon id="path-5" points="54.826 0 0 0 0 22.446 41.481 22.446 41.481 127.836 68.339 127.836 68.339 22.446 109.655 22.446 109.655 0"></polygon>
        <path d="M62.892,46.58 C62.892,61.369 55.422,71.224 44.367,71.224 C33.318,71.224 26.182,61.203 26.182,45.728 C26.182,30.595 33.66,20.232 44.546,20.232 C55.762,20.232 62.892,30.43 62.892,46.58 L62.892,46.58 Z M87.552,75.648 L87.552,2.213 L64.602,2.213 L64.602,13.772 C57.632,4.082 49.81,-2.84217094e-14 38.761,-2.84217094e-14 C15.985,-2.84217094e-14 0,19.036 0,45.894 C0,73.093 14.954,91.126 37.4,91.126 C49.303,91.126 56.782,87.375 63.582,78.205 L63.582,87.896 C63.582,104.718 57.972,112.03 45.218,112.03 C36.038,112.03 29.757,107.439 29.236,100.306 L3.905,100.306 C5.609,119 20.907,130.049 44.877,130.049 C67.152,130.049 80.922,121.045 85.682,103.192 C87.382,96.555 87.552,94.011 87.552,75.648 L87.552,75.648 Z" id="path-7"></path>
        <path d="M24.313,2.034 L0,2.034 L0,94.683 L25.509,94.683 L25.509,46.745 C25.509,28.216 30.939,19.543 42.677,19.543 C48.117,19.543 52.709,22.1 55.253,26.168 C56.956,29.233 57.466,32.298 57.466,40.285 L57.466,94.683 L82.962,94.683 L82.962,42.153 C82.962,25.661 81.945,19.708 78.205,13.758 C72.596,4.919 63.071,-2.84217094e-14 51.347,-2.84217094e-14 C39.954,-2.84217094e-14 30.264,4.919 24.313,13.592 L24.313,2.034 L24.313,2.034 Z" id="path-9"></path>
        <path d="M0,24.479 L25.497,24.479 L25.497,0 L0,0 L0,24.479 Z M0,127.85 L25.497,127.85 L25.497,35.197 L0,35.197 L0,127.85 Z" id="path-11"></path>
        <path d="M0,94.863 L25.496,94.863 L25.496,53.892 C25.496,31.116 32.301,22.266 49.644,22.266 C52.365,22.266 54.057,22.442 56.777,23.118 L56.777,1.017 C54.399,0.165 52.874,0 49.986,0 C38.416,0 29.236,5.099 24.314,14.279 L24.314,2.213 L0,2.213 L0,94.863 L0,94.863 Z" id="path-13"></path>
        <path d="M58.649,92.65 L82.962,92.65 L82.962,0 L57.453,0 L57.453,47.939 C57.453,57.973 56.615,63.072 54.057,67.154 C50.995,72.252 45.894,75.138 40.285,75.138 C34.845,75.138 30.253,72.762 27.709,68.512 C26.006,65.451 25.496,62.386 25.496,54.399 L25.496,0 L0,0 L0,52.53 C0,69.022 1.02,74.973 4.757,80.926 C10.366,89.764 20.056,94.684 31.615,94.684 C42.843,94.684 52.533,89.764 58.649,81.091 L58.649,92.65 L58.649,92.65 Z" id="path-15"></path>
        <polygon id="path-17" points="41.481 127.85 68.339 127.85 68.339 22.445 109.652 22.445 109.652 0 1.13686838e-13 0 1.13686838e-13 22.445 41.481 22.445"></polygon>
        <path d="M24.314,2.034 L0,2.034 L0,94.683 L25.51,94.683 L25.51,46.745 C25.51,28.216 30.939,19.543 42.677,19.543 C48.118,19.543 52.709,22.1 55.253,26.168 C56.956,29.233 57.466,32.298 57.466,40.285 L57.466,94.683 L82.962,94.683 L82.962,42.153 C82.962,25.661 81.945,19.708 78.205,13.758 C72.597,4.919 63.072,-2.84217094e-14 51.348,-2.84217094e-14 C39.954,-2.84217094e-14 30.264,4.919 24.314,13.592 L24.314,2.034 L24.314,2.034 Z" id="path-19"></path>
        <path d="M61.038,53.205 C61.038,69.863 53.56,79.387 40.464,79.387 C32.311,79.387 26.526,74.799 26.526,68.515 C26.526,61.369 32.821,57.797 48.792,55.253 L57.642,53.891 C57.973,53.715 59.169,53.55 61.038,53.205 L61.038,53.205 Z M85.007,54.908 C85.172,48.106 85.172,44.025 85.172,41.988 C85.172,24.823 83.138,17.512 76.171,10.707 C69.366,3.74 58.659,0 45.232,0 C20.408,0 4.768,11.903 3.574,31.791 L29.756,31.791 C30.264,22.61 35.541,18.019 45.739,18.019 C56.281,18.019 60.872,23.627 61.038,36.713 C49.82,37.399 34.69,39.612 26.361,41.823 C8.673,46.07 0,55.253 0,69.355 C0,85.848 13.771,97.406 33.673,97.406 C48.627,97.406 57.973,92.484 64.777,81.091 L64.777,84.831 C64.777,88.402 64.943,90.274 65.629,95.372 L87.564,95.372 C85.693,87.551 85.007,78.37 85.007,63.582 L85.007,54.908 L85.007,54.908 Z" id="path-21"></path>
        <polygon id="path-23" points="0 0 25.496 0 25.496 127.85 0 127.85"></polygon>
        <path d="M78.371,73.283 L44.532,73.283 L61.534,20.232 L78.371,73.283 Z M124.099,127.85 L79.553,0 L44.367,0 L2.84217094e-14,127.85 L27.365,127.85 L37.565,96.224 L85.683,96.224 L96.048,127.85 L124.099,127.85 Z" id="path-25"></path>
        <path d="M65.627,38.251 L26.017,38.251 C28.051,25.675 35.019,19.215 46.247,19.215 C57.464,19.215 65.117,26.858 65.627,38.251 L65.627,38.251 Z M91.975,50.662 C91.975,19.546 74.466,0 46.412,0 C18.703,0 0,19.546 0,48.451 C0,78.715 18.361,98.093 47.264,98.093 C70.219,98.093 86.025,87.209 91.81,67.154 L64.776,67.154 C62.053,74.468 56.268,78.206 47.774,78.206 C34.853,78.206 26.869,70.384 26.183,56.78 L91.81,56.78 C91.975,54.057 91.975,51.679 91.975,50.662 L91.975,50.662 Z" id="path-27"></path>
        <path d="M54.057,22.443 L39.102,22.443 L39.102,0 L13.593,0 L13.593,22.443 L0,22.443 L0,41.658 L13.593,41.658 L13.593,84.156 C13.593,96.401 14.612,101.665 18.184,106.929 C22.941,114.075 29.922,117.14 41.302,117.14 C46.58,117.14 49.3,116.798 54.057,115.602 L54.057,96.566 C50.992,96.908 49.975,97.073 48.793,97.073 C41.812,97.073 39.102,93.171 39.102,83.136 L39.102,41.658 L54.057,41.658 L54.057,22.443 L54.057,22.443 Z" id="path-29"></path>
        <path d="M58.648,92.65 L82.962,92.65 L82.962,0 L57.452,0 L57.452,47.939 C57.452,57.974 56.614,63.072 54.057,67.154 C50.992,72.253 45.894,75.138 40.285,75.138 C34.845,75.138 30.253,72.762 27.709,68.515 C26.006,65.451 25.496,62.386 25.496,54.399 L25.496,0 L0,0 L0,52.53 C0,69.022 1.017,74.973 4.757,80.926 C10.365,89.764 20.056,94.684 31.614,94.684 C42.843,94.684 52.53,89.764 58.648,81.091 L58.648,92.65 L58.648,92.65 Z" id="path-31"></path>
        <path d="M54.057,22.443 L39.103,22.443 L39.103,0 L13.593,0 L13.593,22.443 L0,22.443 L0,41.658 L13.593,41.658 L13.593,84.156 C13.593,96.401 14.613,101.665 18.184,106.929 C22.941,114.075 29.922,117.14 41.302,117.14 C46.58,117.14 49.3,116.798 54.057,115.602 L54.057,96.566 C50.992,96.908 49.975,97.073 48.793,97.073 C41.812,97.073 39.103,93.171 39.103,83.136 L39.103,41.658 L54.057,41.658 L54.057,22.443 L54.057,22.443 Z" id="path-33"></path>
        <path d="M12.755,0 L-5.68434189e-14,0 L-5.68434189e-14,24.476 L25.51,24.476 L25.51,0 L12.755,0 Z M12.755,35.186 L-5.68434189e-14,35.186 L-5.68434189e-14,127.85 L25.51,127.85 L25.51,35.186 L12.755,35.186 Z" id="path-35"></path>
        <path d="M54.056,22.443 L39.102,22.443 L39.102,0 L13.592,0 L13.592,22.443 L-2.84217094e-14,22.443 L-2.84217094e-14,41.658 L13.592,41.658 L13.592,84.156 C13.592,96.401 14.612,101.665 18.184,106.929 C22.941,114.075 29.922,117.14 41.302,117.14 C46.579,117.14 49.3,116.798 54.056,115.602 L54.056,96.566 C50.992,96.908 49.975,97.073 48.792,97.073 C41.811,97.073 39.102,93.171 39.102,83.136 L39.102,41.658 L54.056,41.658 L54.056,22.443 L54.056,22.443 Z" id="path-37"></path>
        <path d="M80.584,32.298 C80.749,12.066 66.302,0 41.481,0 C17.512,0 2.213,11.559 2.213,29.413 C2.213,36.204 5.099,43.005 10.2,47.597 C15.985,52.872 22.101,55.251 39.103,58.825 C51.678,61.534 56.27,64.596 56.27,70.384 C56.27,75.813 50.661,79.388 42.167,79.388 C31.449,79.388 25.84,74.286 26.017,64.431 L2.84217094e-14,64.431 C0.344,86.024 15.475,98.093 41.991,98.093 C67.156,98.093 82.797,86.532 82.797,68.005 C82.797,53.889 74.468,45.384 56.105,40.627 L37.741,35.873 C30.774,34.001 27.709,31.447 27.709,27.365 C27.709,21.756 32.477,18.361 40.464,18.361 C50.827,18.361 55.088,22.266 55.595,32.298 L80.584,32.298 L80.584,32.298 Z" id="path-39"></path>
        <path d="M24.314,2.034 L-7.10542736e-15,2.034 L-7.10542736e-15,94.683 L25.51,94.683 L25.51,46.745 C25.51,28.216 30.94,19.546 42.678,19.546 C48.118,19.546 52.71,22.1 55.253,26.171 C56.957,29.233 57.466,32.298 57.466,40.285 L57.466,94.683 L82.963,94.683 L82.963,42.153 C82.963,25.661 81.946,19.711 78.206,13.758 C72.597,4.919 63.072,0 51.348,0 C39.955,0 30.264,4.919 24.314,13.593 L24.314,2.034 L24.314,2.034 Z" id="path-41"></path>
        <polygon id="path-43" points="12.741 0 0 0 0 127.85 25.482 127.85 25.482 0"></polygon>
    </defs>
    <g id="Page-1" stroke="none" stroke-width="1" fill="none" fill-rule="evenodd">
        <g id="tati">
            <g id="Group-3" transform="translate(206.901000, 32.477000)">
                <mask id="mask-2" fill="white">
                    <use xlink:href="#path-1"></use>
                </mask>
                <g id="Clip-2"></g>
                <polygon id="Fill-1" fill="#000000" mask="url(#mask-2)" points="-1 -1 92.974 -1 92.974 99.093 -1 99.093"></polygon>
            </g>
            <g id="Group-6" transform="translate(116.712000, 0.000000)">
                <mask id="mask-4" fill="white">
                    <use xlink:href="#path-3"></use>
                </mask>
                <g id="Clip-5"></g>
                <polygon id="Fill-4" fill="#000000" mask="url(#mask-4)" points="-1 -1 84.127 -1 84.127 128.849 -1 128.849"></polygon>
            </g>
            <g id="Group-9" transform="translate(0.000000, 0.003000)">
                <mask id="mask-6" fill="white">
                    <use xlink:href="#path-5"></use>
                </mask>
                <g id="Clip-8"></g>
                <polygon id="Fill-7" fill="#000000" mask="url(#mask-6)" points="-1 -1 110.655 -1 110.655 128.836 -1 128.836"></polygon>
            </g>
            <g id="Group-12" transform="translate(936.449000, 181.283000)">
                <mask id="mask-8" fill="white">
                    <use xlink:href="#path-7"></use>
                </mask>
                <g id="Clip-11"></g>
                <polygon id="Fill-10" fill="#000000" mask="url(#mask-8)" points="-1 -1 88.551 -1 88.551 131.049 -1 131.049"></polygon>
            </g>
            <g id="Group-15" transform="translate(845.061000, 181.456000)">
                <mask id="mask-10" fill="white">
                    <use xlink:href="#path-9"></use>
                </mask>
                <g id="Clip-14"></g>
                <polygon id="Fill-13" fill="#000000" mask="url(#mask-10)" points="-1 -1 83.962 -1 83.962 95.683 -1 95.683"></polygon>
            </g>
            <g id="Group-18" transform="translate(805.285000, 148.295000)">
                <mask id="mask-12" fill="white">
                    <use xlink:href="#path-11"></use>
                </mask>
                <g id="Clip-17"></g>
                <polygon id="Fill-16" fill="#000000" mask="url(#mask-12)" points="-1 -1 26.497 -1 26.497 128.85 -1 128.85"></polygon>
            </g>
            <g id="Group-21" transform="translate(737.871000, 181.280000)">
                <mask id="mask-14" fill="white">
                    <use xlink:href="#path-13"></use>
                </mask>
                <g id="Clip-20"></g>
                <polygon id="Fill-19" fill="#000000" mask="url(#mask-14)" points="-1 -1 57.777 -1 57.777 95.863 -1 95.863"></polygon>
            </g>
            <g id="Group-24" transform="translate(642.008000, 183.493000)">
                <mask id="mask-16" fill="white">
                    <use xlink:href="#path-15"></use>
                </mask>
                <g id="Clip-23"></g>
                <polygon id="Fill-22" fill="#000000" mask="url(#mask-16)" points="-1 -1 83.962 -1 83.962 95.684 -1 95.684"></polygon>
            </g>
            <g id="Group-27" transform="translate(552.570000, 148.293000)">
                <mask id="mask-18" fill="white">
                    <use xlink:href="#path-17"></use>
                </mask>
                <g id="Clip-26"></g>
                <polygon id="Fill-25" fill="#000000" mask="url(#mask-18)" points="-1 -1 110.652 -1 110.652 128.85 -1 128.85"></polygon>
            </g>
            <g id="Group-30" transform="translate(431.561000, 181.456000)">
                <mask id="mask-20" fill="white">
                    <use xlink:href="#path-19"></use>
                </mask>
                <g id="Clip-29"></g>
                <polygon id="Fill-28" fill="#000000" mask="url(#mask-20)" points="-1 -1 83.962 -1 83.962 95.683 -1 95.683"></polygon>
            </g>
            <g id="Group-33" transform="translate(333.861000, 180.772000)">
                <mask id="mask-22" fill="white">
                    <use xlink:href="#path-21"></use>
                </mask>
                <g id="Clip-32"></g>
                <polygon id="Fill-31" fill="#000000" mask="url(#mask-22)" points="-1 -1 88.564 -1 88.564 98.406 -1 98.406"></polygon>
            </g>
            <g id="Group-36" transform="translate(299.120000, 148.294000)">
                <mask id="mask-24" fill="white">
                    <use xlink:href="#path-23"></use>
                </mask>
                <g id="Clip-35"></g>
                <polygon id="Fill-34" fill="#000000" mask="url(#mask-24)" points="-1 -1 26.496 -1 26.496 128.85 -1 128.85"></polygon>
            </g>
            <g id="Group-39" transform="translate(169.157000, 148.294000)">
                <mask id="mask-26" fill="white">
                    <use xlink:href="#path-25"></use>
                </mask>
                <g id="Clip-38"></g>
                <polygon id="Fill-37" fill="#000000" mask="url(#mask-26)" points="-1 -1 125.099 -1 125.099 128.85 -1 128.85"></polygon>
            </g>
            <g id="Group-42" transform="translate(550.030000, 329.029000)">
                <mask id="mask-28" fill="white">
                    <use xlink:href="#path-27"></use>
                </mask>
                <g id="Clip-41"></g>
                <polygon id="Fill-40" fill="#000000" mask="url(#mask-28)" points="-1 -1 92.975 -1 92.975 99.093 -1 99.093"></polygon>
            </g>
            <g id="Group-45" transform="translate(490.427000, 309.307000)">
                <mask id="mask-30" fill="white">
                    <use xlink:href="#path-29"></use>
                </mask>
                <g id="Clip-44"></g>
                <polygon id="Fill-43" fill="#000000" mask="url(#mask-30)" points="-1 -1 55.057 -1 55.057 118.14 -1 118.14"></polygon>
            </g>
            <g id="Group-48" transform="translate(398.814000, 331.753000)">
                <mask id="mask-32" fill="white">
                    <use xlink:href="#path-31"></use>
                </mask>
                <g id="Clip-47"></g>
                <polygon id="Fill-46" fill="#000000" mask="url(#mask-32)" points="-1 -1 83.962 -1 83.962 95.684 -1 95.684"></polygon>
            </g>
            <g id="Group-51" transform="translate(333.557000, 309.307000)">
                <mask id="mask-34" fill="white">
                    <use xlink:href="#path-33"></use>
                </mask>
                <g id="Clip-50"></g>
                <polygon id="Fill-49" fill="#000000" mask="url(#mask-34)" points="-1 -1 55.057 -1 55.057 118.14 -1 118.14"></polygon>
            </g>
            <g id="Group-54" transform="translate(299.190000, 296.554000)">
                <mask id="mask-36" fill="white">
                    <use xlink:href="#path-35"></use>
                </mask>
                <g id="Clip-53"></g>
                <polygon id="Fill-52" fill="#000000" mask="url(#mask-36)" points="-1 -1 26.51 -1 26.51 128.85 -1 128.85"></polygon>
            </g>
            <g id="Group-57" transform="translate(235.043000, 309.307000)">
                <mask id="mask-38" fill="white">
                    <use xlink:href="#path-37"></use>
                </mask>
                <g id="Clip-56"></g>
                <polygon id="Fill-55" fill="#000000" mask="url(#mask-38)" points="-1 -1 55.056 -1 55.056 118.14 -1 118.14"></polygon>
            </g>
            <g id="Group-60" transform="translate(150.073000, 329.032000)">
                <mask id="mask-40" fill="white">
                    <use xlink:href="#path-39"></use>
                </mask>
                <g id="Clip-59"></g>
                <polygon id="Fill-58" fill="#000000" mask="url(#mask-40)" points="-1 -1 83.797 -1 83.797 99.093 -1 99.093"></polygon>
            </g>
            <g id="Group-63" transform="translate(60.309000, 329.716000)">
                <mask id="mask-42" fill="white">
                    <use xlink:href="#path-41"></use>
                </mask>
                <g id="Clip-62"></g>
                <polygon id="Fill-61" fill="#000000" mask="url(#mask-42)" points="-1 -1 83.963 -1 83.963 95.683 -1 95.683"></polygon>
            </g>
            <g id="Group-66" transform="translate(23.948000, 296.554000)">
                <mask id="mask-44" fill="white">
                    <use xlink:href="#path-43"></use>
                </mask>
                <g id="Clip-65"></g>
                <polygon id="Fill-64" fill="#000000" mask="url(#mask-44)" points="-1 -1 26.482 -1 26.482 128.85 -1 128.85"></polygon>
            </g>
        </g>
    </g>
</svg>