<?xml version="1.0" encoding="UTF-8"?>
<svg width="235.697246px" height="68.6640705px" viewBox="0 0 235.697246 68.6640705" version="1.1" xmlns="http://www.w3.org/2000/svg" xmlns:xlink="http://www.w3.org/1999/xlink">
    <title>vector_logo_text</title>
    <defs>
        <polygon id="path-1" points="17.10817 0 10.61559 18.34384 4.07563 0 -1.42108547e-14 0 8.29343 22.19557 12.79558 22.19557 21.08903 0"></polygon>
        <polygon id="path-3" points="0 0 0 22.19557 13.5538 22.19557 13.5538 18.82531 3.6965 18.82531 3.6965 12.6144 12.606 12.6144 12.606 9.34043 3.6965 9.34043 3.6965 3.37026 13.3169 3.37026 13.3169 0"></polygon>
        <path d="M17.2503,5.72944 C15.7338,4.28505 13.6486,3.41841 11.2317,3.41841 C6.9191,3.41841 3.8387,6.64423 3.8387,11.45889 C3.8387,16.32169 7.0613,19.49936 11.3264,19.49936 C13.7908,19.49936 15.7812,18.77716 17.4873,17.23647 L17.4873,21.28078 C15.5916,22.4363 13.459,22.91777 11.2317,22.91777 C4.5021,22.91777 0,18.1994 0,11.45889 C0,4.67022 4.7391,0 11.2317,0 C13.459,0 15.4969,0.48147 17.2503,1.58884 L17.2503,5.72944 Z" id="path-5"></path>
        <polygon id="path-7" points="0 0 0 3.37026 6.9191 3.37026 6.9191 22.19557 10.663 22.19557 10.663 3.37026 17.5347 3.37026 17.5347 0"></polygon>
        <path d="M11.3265,3.41841 C7.1561,3.41841 3.8861,6.59608 3.8861,11.45889 C3.8861,16.32169 7.1561,19.49936 11.3265,19.49936 C15.4969,19.49936 18.7669,16.32169 18.7669,11.45889 C18.7669,6.59608 15.4969,3.41841 11.3265,3.41841 L11.3265,3.41841 Z M11.3265,0 C17.5821,0 22.653,4.67022 22.653,11.45889 C22.653,18.24755 17.6295,22.91777 11.3265,22.91777 C5.0235,22.91777 0,18.24755 0,11.45889 C0,4.67022 4.9761,0 11.3265,0 L11.3265,0 Z" id="path-9"></path>
        <path d="M3.7439,11.45888 L5.5922,11.45888 C8.5778,11.45888 10.4735,10.15893 10.4735,7.27013 C10.4735,4.71836 8.7674,3.22582 5.45,3.22582 C5.0235,3.22582 4.1705,3.27397 3.7439,3.32211 L3.7439,11.45888 Z M3.7439,22.48445 L2.84217094e-14,22.48445 L2.84217094e-14,0.38517 C1.327,0.14444 3.6492,7.10542736e-15 5.45,7.10542736e-15 C11.1843,7.10542736e-15 14.3121,2.55177 14.3121,7.22198 C14.3121,10.4478 12.5113,12.80699 9.9995,13.76992 L16.5869,22.48445 L12.0848,22.48445 L6.303,14.63656 L3.8387,14.63656 L3.8387,22.48445 L3.7439,22.48445 Z" id="path-11"></path>
        <polygon id="path-13" points="-1.42108547e-14 0 3.84477 0 3.84477 22.424257 -1.42108547e-14 22.424257"></polygon>
        <polygon id="path-15" points="15.18446 0 15.18446 16.6232 3.89344 0 -1.42108547e-14 0 -1.42108547e-14 22.473006 3.74744 22.473006 3.74744 6.0448 15.23306 22.473006 18.93186 22.473006 18.93186 0"></polygon>
        <path d="M0.292,17.54942 C2.0441,18.865624 3.8448,19.840592 6.2295,19.840592 C8.4682,19.840592 10.3663,18.963121 10.3663,16.72069 C10.3663,14.62451 8.7602,13.84454 6.2782,13.11331 C1.9954,11.74836 0,10.04216 0,6.28854 C0,2.19367 3.2608,0 7.1055,0 C9.5389,0 11.3396,0.68247 12.8484,1.70619 L12.8484,5.55731 C11.0963,4.14361 9.3929,3.31489 7.2515,3.31489 C5.1101,3.31489 3.7961,4.48485 3.7961,6.23979 C3.7961,8.04348 5.0615,8.82345 7.8842,9.70093 C12.2643,11.01713 14.1624,12.86957 14.1624,16.67195 C14.1624,21.156799 10.6096,23.204231 6.2782,23.204231 C3.8448,23.204231 1.752,22.521754 0.3407,21.546786 L0.3407,17.54942 L0.292,17.54942 Z" id="path-17"></path>
        <polygon id="path-19" points="0 0 0 3.41238 7.0568 3.41238 7.0568 22.473006 10.9016 22.473006 10.9016 3.41238 17.9585 3.41238 17.9585 0"></polygon>
        <polygon id="path-21" points="0 0 3.8448 0 3.8448 22.424257 0 22.424257"></polygon>
        <polygon id="path-23" points="0 0 0 3.41238 7.1056 3.41238 7.1056 22.473006 10.9503 22.473006 10.9503 3.41238 18.0072 3.41238 18.0072 0"></polygon>
        <path d="M2.84217094e-14,0 L3.8448,0 L3.8448,14.08829 C3.8448,18.378149 6.0835,19.54811 9.4416,19.54811 C11.1936,19.54811 12.5563,19.401865 13.8704,19.158123 L13.8704,0 L17.7151,0 L17.7151,21.790536 C15.6224,22.375517 12.1183,22.814253 9.4416,22.814253 C4.3314,22.814253 2.84217094e-14,21.010562 2.84217094e-14,14.77077 L2.84217094e-14,0 Z" id="path-25"></path>
        <polygon id="path-27" points="2.84217094e-14 0 2.84217094e-14 3.41238 7.1055 3.41238 7.1055 22.473006 10.9503 22.473006 10.9503 3.41238 18.0071 3.41238 18.0071 0"></polygon>
        <polygon id="path-29" points="-2.84217094e-14 0 -2.84217094e-14 22.473006 13.9191 22.473006 13.9191 19.060618 3.8448 19.060618 3.8448 12.77208 12.9944 12.77208 12.9944 9.45718 3.8448 9.45718 3.8448 3.41238 13.7244 3.41238 13.7244 0"></polygon>
        <polygon id="path-31" points="34.6324256 45.83174 19.0850756 5.10479 26.8121956 5.10479 26.8121956 0 1.66533454e-15 0 1.66533454e-15 5.10479 7.7457466 5.10479 28.0224756 58.064674 30.5174956 63.8562905 35.9916556 49.19162"></polygon>
        <polygon id="path-33" points="17.53964 0 2.68122 6.497 -7.10542736e-15 12.71557 11.82343 7.81497 3.92873 27.26886 3.83563 27.45449 6.47961 34.02575 16.27351 9.597 21.43113 21.27305 24.0565 15.1473"></polygon>
    </defs>
    <g id="Page-1" stroke="none" stroke-width="1" fill="none" fill-rule="evenodd">
        <g id="vector_logo_text">
            <g id="Group-3" transform="translate(78.231416, 5.418010)">
                <mask id="mask-2" fill="white">
                    <use xlink:href="#path-1"></use>
                </mask>
                <g id="Clip-2"></g>
                <polygon id="Fill-1" fill="#1E191A" mask="url(#mask-2)" points="-5 -5 26.08903 -5 26.08903 27.19557 -5 27.19557"></polygon>
            </g>
            <g id="Group-6" transform="translate(102.969546, 5.418010)">
                <mask id="mask-4" fill="white">
                    <use xlink:href="#path-3"></use>
                </mask>
                <g id="Clip-5"></g>
                <polygon id="Fill-4" fill="#1E191A" mask="url(#mask-4)" points="-5.00001 -5 18.5538 -5 18.5538 27.19557 -5.00001 27.19557"></polygon>
            </g>
            <g id="Group-9" transform="translate(120.409446, 5.080980)">
                <mask id="mask-6" fill="white">
                    <use xlink:href="#path-5"></use>
                </mask>
                <g id="Clip-8"></g>
                <polygon id="Fill-7" fill="#1E191A" mask="url(#mask-6)" points="-5 -5 22.4873 -5 22.4873 27.91777 -5 27.91777"></polygon>
            </g>
            <g id="Group-12" transform="translate(140.598046, 5.418010)">
                <mask id="mask-8" fill="white">
                    <use xlink:href="#path-7"></use>
                </mask>
                <g id="Clip-11"></g>
                <polygon id="Fill-10" fill="#1E191A" mask="url(#mask-8)" points="-5 -5 22.5347 -5 22.5347 27.19557 -5 27.19557"></polygon>
            </g>
            <g id="Group-15" transform="translate(160.833946, 5.080980)">
                <mask id="mask-10" fill="white">
                    <use xlink:href="#path-9"></use>
                </mask>
                <g id="Clip-14"></g>
                <polygon id="Fill-13" fill="#1E191A" mask="url(#mask-10)" points="-5 -5 27.653 -5 27.653 27.91777 -5 27.91777"></polygon>
            </g>
            <g id="Group-18" transform="translate(188.320746, 5.129130)">
                <mask id="mask-12" fill="white">
                    <use xlink:href="#path-11"></use>
                </mask>
                <g id="Clip-17"></g>
                <polygon id="Fill-16" fill="#1E191A" mask="url(#mask-12)" points="-5 -5 21.5869 -5 21.5869 27.48445 -5 27.48445"></polygon>
            </g>
            <g id="Group-21" transform="translate(78.256226, 40.675540)">
                <mask id="mask-14" fill="white">
                    <use xlink:href="#path-13"></use>
                </mask>
                <g id="Clip-20"></g>
                <polygon id="Fill-19" fill="#1E191A" mask="url(#mask-14)" points="-5 -5 8.84477 -5 8.84477 27.4242572 -5 27.4242572"></polygon>
            </g>
            <g id="Group-24" transform="translate(86.529786, 40.675540)">
                <mask id="mask-16" fill="white">
                    <use xlink:href="#path-15"></use>
                </mask>
                <g id="Clip-23"></g>
                <polygon id="Fill-22" fill="#1E191A" mask="url(#mask-16)" points="-5 -5 23.93186 -5 23.93186 27.4730056 -5 27.4730056"></polygon>
            </g>
            <g id="Group-27" transform="translate(110.182446, 40.383050)">
                <mask id="mask-18" fill="white">
                    <use xlink:href="#path-17"></use>
                </mask>
                <g id="Clip-26"></g>
                <polygon id="Fill-25" fill="#1E191A" mask="url(#mask-18)" points="-5 -5 19.1624 -5 19.1624 28.2042311 -5 28.2042311"></polygon>
            </g>
            <g id="Group-30" transform="translate(126.972946, 40.675540)">
                <mask id="mask-20" fill="white">
                    <use xlink:href="#path-19"></use>
                </mask>
                <g id="Clip-29"></g>
                <polygon id="Fill-28" fill="#1E191A" mask="url(#mask-20)" points="-5 -5 22.9585 -5 22.9585 27.4730056 -5 27.4730056"></polygon>
            </g>
            <g id="Group-33" transform="translate(149.068146, 40.675540)">
                <mask id="mask-22" fill="white">
                    <use xlink:href="#path-21"></use>
                </mask>
                <g id="Clip-32"></g>
                <polygon id="Fill-31" fill="#1E191A" mask="url(#mask-22)" points="-5 -5 8.8448 -5 8.8448 27.4242572 -5 27.4242572"></polygon>
            </g>
            <g id="Group-36" transform="translate(157.001046, 40.675540)">
                <mask id="mask-24" fill="white">
                    <use xlink:href="#path-23"></use>
                </mask>
                <g id="Clip-35"></g>
                <polygon id="Fill-34" fill="#1E191A" mask="url(#mask-24)" points="-5 -5 23.0072 -5 23.0072 27.4730056 -5 27.4730056"></polygon>
            </g>
            <g id="Group-39" transform="translate(178.658346, 40.724280)">
                <mask id="mask-26" fill="white">
                    <use xlink:href="#path-25"></use>
                </mask>
                <g id="Clip-38"></g>
                <polygon id="Fill-37" fill="#1E191A" mask="url(#mask-26)" points="-5 -5 22.7151 -5 22.7151 27.8142527 -5 27.8142527"></polygon>
            </g>
            <g id="Group-42" transform="translate(200.461646, 40.675540)">
                <mask id="mask-28" fill="white">
                    <use xlink:href="#path-27"></use>
                </mask>
                <g id="Clip-41"></g>
                <polygon id="Fill-40" fill="#1E191A" mask="url(#mask-28)" points="-5 -5 23.0071 -5 23.0071 27.4730056 -5 27.4730056"></polygon>
            </g>
            <g id="Group-45" transform="translate(221.778146, 40.675540)">
                <mask id="mask-30" fill="white">
                    <use xlink:href="#path-29"></use>
                </mask>
                <g id="Clip-44"></g>
                <polygon id="Fill-43" fill="#1E191A" mask="url(#mask-30)" points="-5 -5 18.9191 -5 18.9191 27.4730056 -5 27.4730056"></polygon>
            </g>
            <g id="Group-48" transform="translate(-0.000000, 4.807780)">
                <mask id="mask-32" fill="white">
                    <use xlink:href="#path-31"></use>
                </mask>
                <g id="Clip-47"></g>
                <polygon id="Fill-46" fill="#1E191A" mask="url(#mask-32)" points="-5.0000004 -5 40.9916556 -5 40.9916556 68.85629 -5.0000004 68.85629"></polygon>
            </g>
            <g id="Group-51" transform="translate(37.443986, 0.000000)">
                <mask id="mask-34" fill="white">
                    <use xlink:href="#path-33"></use>
                </mask>
                <g id="Clip-50"></g>
                <polygon id="Fill-49" fill="#E4007F" mask="url(#mask-34)" points="-5 -5 29.0565 -5 29.0565 39.02575 -5 39.02575"></polygon>
            </g>
        </g>
    </g>
</svg>